# xmcd
#
# Track frame offsets: 
#        150
#        17088
#        34957
#        54130
#        71610
#        87604
#        106430
#        120124
#        142821
#        158756
#        178072
#        193001
#
# Disc length: 2863 seconds
#
# Revision: 0
# Processed by: cddbd v1.5.2PL0 Copyright (c) Steve Scherf et al.
# Submitted via: ExactAudioCopy v0.99pb5
#
DISCID=990b2d0c
DTITLE=Fintelligens - Collections
DYEAR=2007
DGENRE=Rap
TTITLE0=Kaikki Peliin
TTITLE1=Stockholm-Helsinki (feat. Petter and PeeWee)
TTITLE2=Vaan Sil On V‰li‰
TTITLE3=Kellareiden Kasvatit
TTITLE4=Voittamaton
TTITLE5=Kaikki Tiet‰‰
TTITLE6=Heruuks
TTITLE7=En Vaihtais P‰iv‰‰k‰‰n
TTITLE8=Sori
TTITLE9=Kaks Jannuu
TTITLE10=P‰‰ Pystyyn
TTITLE11=Kelaa Sit‰
EXTD=
EXTT0=
EXTT1=
EXTT2=
EXTT3=
EXTT4=
EXTT5=
EXTT6=
EXTT7=
EXTT8=
EXTT9=
EXTT10=
EXTT11=
PLAYORDER=
